# xmcd CD database file
#
# Track frame offsets:
#	150
#	43785
#	72463
#	103615
#	126037
#	173727
#	201525
#	216845
#	241228
#	269657
#
# Disc length: 3946 seconds
#
# Revision: 0
# Processed by: cddbd v1.5.2PL0 Copyright (c) Steve Scherf et al.
# Submitted via: jetAudio 7
#
DISCID=9c0f680a
DTITLE=吳莉  - 風之獵 Hunt in Wind
DYEAR=1900
DGENRE=장르 없음
TTITLE0=溟山
TTITLE1=英雄
TTITLE2=風之獵
TTITLE3=月光愛人
TTITLE4=層層水瀾
TTITLE5=瑤族舞曲
TTITLE6=瀏陽河
TTITLE7=洞庭新歌
TTITLE8=香山射彭
TTITLE9=漁舟唱晩
EXTD=
EXTT0=
EXTT1=
EXTT2=
EXTT3=
EXTT4=
EXTT5=
EXTT6=
EXTT7=
EXTT8=
EXTT9=
PLAYORDER=
